# xmcd
#
# Track frame offsets:
#	150
#	18841
#	32336
#	43176
#	57413
#	70875
#	88284
#	101549
#	118099
#	130737
#	141649
#	153281
#	166546
#	177150
#	189403
#	204026
#	217985
#	232811
#	247532
#	251525
#	263091
#	277632
#	304759
#	318510
#	333074
#
# Disc length: 4632 seconds
#
# Revision: 1
# Processed by: cddbd v1.5.2PL0 Copyright (c) Steve Scherf et al.
# Submitted via: audiograbber 1.81.03
#
DISCID=42121619
DTITLE=Various Artist - GOOD OL' COUNTRY MUSIC IS HERE TO STAY
DYEAR=1900
DGENRE=COUNTRY
TTITLE0=JOHNNY PAYCHECK - THE OLD VIOLIN
TTITLE1=TEX RITTER - JUST BEYOND THE MOON
TTITLE2=JOHNNY LEE and LANE BRODY - THE YELLOW ROSE
TTITLE3=MARTIN DELRAY - LILLIE'S WHITE LIES
TTITLE4=WAYLON JENNINGS - WRONG
TTITLE5=JOHNNY CASH - CHATTANOOGA CITY LIMITS SIGN
TTITLE6=ERNEST TUBB - SAY SOMETHING NICE TO SARAH
TTITLE7=JOHN WESLEY RYLES - KAY
TTITLE8=BILLY ED WHEELER - ODE TO THE LITTLE BROWN SHACK
TTITLE9=DEL WOOD - DOWN YONDER
TTITLE10=HENSON CARGILL - SKIP A ROPE
TTITLE11=STUART HAMBLEN - THIS OLE' HOUSE
TTITLE12=MARVIN RAINWATER - GONNA FIND ME A BLUEBIRD
TTITLE13=BOBBY HELMS - FRAULIEIN
TTITLE14=MERLE HAGGARD - SHELLY'S WINTER LOVE
TTITLE15=JOHNNY CASH - THE REVEREND, MR. BLACK
TTITLE16=LESTER FLATT - FATHER'S TABLE GRACE
TTITLE17=ROY ACUFF - THAT'S THE MAN I'M LOOKING FOR
TTITLE18=FLATT and SCRUGGS - MARTHA WHITE THEME
TTITLE19=DAVID WILLS - FROM BARROMS TO BEDROOMS
TTITLE20=ARCHIE CAMPBELL - RO-HO THE ROOSTER
TTITLE21=RINDERCELLA - ARCHIE CAMPBELL
TTITLE22=LITTLE DAVID WILKINS - BUTTER BEANS
TTITLE23=CHET ATKINS - FROG-KISSIN
TTITLE24=HANK LOCKLIN - THE COUNTRY HALL OF FAME
EXTD=
EXTT0=
EXTT1=
EXTT2=
EXTT3=
EXTT4=
EXTT5=
EXTT6=
EXTT7=
EXTT8=
EXTT9=
EXTT10=
EXTT11=
EXTT12=
EXTT13=
EXTT14=
EXTT15=
EXTT16=
EXTT17=
EXTT18=
EXTT19=
EXTT20=
EXTT21=
EXTT22=
EXTT23=
EXTT24=
PLAYORDER=
